<?xml version="1.0" encoding="UTF-8"?>
<svg id="Vrstva_1" data-name="Vrstva 1" xmlns="http://www.w3.org/2000/svg" viewBox="0 0 44.64 44.64">
  <defs>
    <style>
      .cls-1 {
        fill: #1b2838;
        opacity: .7;
      }
    </style>
  </defs>
  <path class="cls-1" d="M25.46,27.85c0,.54.59.88,1.06.61l1.95-1.11,1.94-1.13c.47-.27.47-.95,0-1.22l-1.94-1.13-1.95-1.11c-.47-.27-1.05.07-1.06.61v1.19h-13.56v-9.82h17.74c.61,0,1.11-.5,1.11-1.11s-.5-1.11-1.11-1.11H10.79c-.61,0-1.11.5-1.11,1.11v12.04c0,.61.5,1.11,1.11,1.11h14.67v1.07Z"/>
  <path class="cls-1" d="M19.23,17.36c0-.54-.59-.88-1.06-.61l-1.95,1.11-1.94,1.13c-.47.27-.47.95,0,1.22l1.94,1.13,1.95,1.11c.47.27,1.05-.07,1.06-.61v-1.19h13.56v9.82H15.05c-.61,0-1.11.5-1.11,1.11s.5,1.11,1.11,1.11h18.85c.61,0,1.11-.5,1.11-1.11v-12.04c0-.61-.5-1.11-1.11-1.11h-14.67v-1.07Z"/>
</svg>