<?xml version="1.0" encoding="UTF-8"?>
<svg id="Vrstva_1" data-name="Vrstva 1" xmlns="http://www.w3.org/2000/svg" viewBox="0 0 44.64 44.64">
  <defs>
    <style>
      .cls-1 {
        fill: #1b2838;
      }

      .cls-2 {
        opacity: .7;
      }
    </style>
  </defs>
  <g class="cls-2">
    <path class="cls-1" d="M22.65,21.87c1.73,0,3.14-1.4,3.14-3.14s-1.4-3.14-3.14-3.14-3.14,1.4-3.14,3.14,1.4,3.14,3.14,3.14Z"/>
    <path class="cls-1" d="M22.65,22.54c-3.15,0-5.79,3.03-6.48,5.96-.18.78.39,1.53,1.19,1.53h10.57c.8,0,1.38-.75,1.19-1.53-.69-2.94-3.33-5.96-6.48-5.96Z"/>
    <path class="cls-1" d="M29.87,20.08c1.49,0,2.69-1.2,2.69-2.69s-1.2-2.69-2.69-2.69-2.69,1.2-2.69,2.69,1.2,2.69,2.69,2.69Z"/>
    <path class="cls-1" d="M15.56,20.08c1.49,0,2.69-1.2,2.69-2.69s-1.2-2.69-2.69-2.69-2.69,1.2-2.69,2.69,1.2,2.69,2.69,2.69Z"/>
    <path class="cls-1" d="M35.43,25.77c-.59-2.52-2.86-5.12-5.56-5.12-1.31,0-2.52.61-3.48,1.53,1.78,1.14,3.16,2.98,3.88,4.9h4.14c.69,0,1.18-.65,1.02-1.32Z"/>
    <path class="cls-1" d="M18.99,22.14c-.96-.89-2.14-1.49-3.43-1.49-2.7,0-4.97,2.6-5.56,5.12-.16.67.34,1.32,1.02,1.32h4.02c.72-1.95,2.13-3.81,3.95-4.95Z"/>
  </g>
</svg>