<?xml version="1.0" encoding="UTF-8"?>
<svg id="Vrstva_1" data-name="Vrstva 1" xmlns="http://www.w3.org/2000/svg" viewBox="0 0 23.9 23.9">
  <defs>
    <style>
      .cls-1 {
        fill: #367eab;
      }
    </style>
  </defs>
  <path class="cls-1" d="M19.73,10.27c-.37,0-.67.3-.67.67v1.91H4.84v-5.03c0-.37-.3-.67-.67-.67h0c-.37,0-.67.3-.67.67v9.25c0,.07.06.13.13.13h1.08c.07,0,.13-.06.13-.13v-1.5h14.22v1.5c0,.07.06.13.13.13h1.08c.07,0,.13-.06.13-.13v-6.13c0-.37-.3-.67-.67-.67Z"/>
  <path class="cls-1" d="M8.64,12.16h9.64c.07,0,.13-.06.13-.13v-1.64c0-.37-.3-.67-.67-.67h-8.56c-.37,0-.67.3-.67.67v1.64c0,.07.06.13.13.13Z"/>
  <circle class="cls-1" cx="6.63" cy="10.82" r="1.34"/>
</svg>