<?xml version="1.0" encoding="UTF-8"?>
<svg id="Vrstva_1" data-name="Vrstva 1" xmlns="http://www.w3.org/2000/svg" viewBox="0 0 44.64 44.64">
  <defs>
    <style>
      .cls-1 {
        fill: #1b2838;
        opacity: .51;
      }
    </style>
  </defs>
  <path class="cls-1" d="M34.12,18.41c-.56,0-1.02.46-1.02,1.02v2.9H11.53v-7.63c0-.56-.46-1.02-1.02-1.02h0c-.56,0-1.02.46-1.02,1.02v14.03c0,.11.09.2.2.2h1.64c.11,0,.2-.09.2-.2v-2.28h21.57v2.28c0,.11.09.2.2.2h1.64c.11,0,.2-.09.2-.2v-9.3c0-.56-.46-1.02-1.02-1.02Z"/>
</svg>