<?xml version="1.0" encoding="UTF-8"?>
<svg id="Vrstva_1" data-name="Vrstva 1" xmlns="http://www.w3.org/2000/svg" viewBox="0 0 44.64 44.64">
  <defs>
    <style>
      .cls-1 {
        fill: #1b2838;
        opacity: .7;
      }
    </style>
  </defs>
  <path class="cls-1" d="M31.88,16.57h-7.78v-1.72c0-1.36-1.11-2.47-2.48-2.47h-8.82c-1.36,0-2.48,1.11-2.48,2.47v14.82c0,1.36,1.11,2.48,2.48,2.48h8.82c1.13,0,2.08-.77,2.37-1.81h7.88c1.36,0,2.48-1.11,2.48-2.48v-8.82c0-1.36-1.11-2.48-2.48-2.48ZM21.45,16.57h-4.39c-1.36,0-2.48,1.11-2.48,2.48v2.54h-1.33c-.14,0-.26-.12-.26-.26v-6.14c0-.14.12-.26.26-.26h7.94c.14,0,.26.12.26.26v1.39ZM17.45,27.43v-7.94c0-.14.12-.26.26-.26h13.85c.14,0,.26.12.26.26v7.94c0,.14-.12.26-.26.26h-13.85c-.14,0-.26-.12-.26-.26Z"/>
</svg>