<?xml version="1.0" encoding="UTF-8"?>
<svg id="Vrstva_1" data-name="Vrstva 1" xmlns="http://www.w3.org/2000/svg" viewBox="0 0 44.64 44.64">
  <defs>
    <style>
      .cls-1 {
        fill: #1b2838;
        opacity: .7;
      }
    </style>
  </defs>
  <path class="cls-1" d="M33.63,15.28l-1.42.58c-.9-1.37-2.05-2.51-3.37-3.38l.59-1.42c.19-.45-.03-.97-.48-1.16l-2.45-1.02c-.45-.19-.97.03-1.16.48l-.59,1.42c-1.55-.32-3.17-.34-4.77-.01l-.58-1.42c-.19-.45-.71-.67-1.16-.48l-2.45,1.01c-.45.19-.67.71-.48,1.16l.58,1.42c-1.37.9-2.51,2.05-3.38,3.37l-1.42-.59c-.45-.19-.97.03-1.16.48l-1.02,2.45c-.19.45.03.97.48,1.16l1.42.59c-.32,1.55-.34,3.17-.01,4.77l-1.42.58c-.45.19-.67.71-.48,1.16l1.01,2.45c.19.45.71.67,1.16.48l1.42-.58c.9,1.37,2.05,2.51,3.37,3.38l-.59,1.42c-.19.45.03.97.48,1.16l2.45,1.02c.45.19.97-.03,1.16-.48l.59-1.42c1.55.32,3.17.34,4.77.01l.58,1.42c.19.45.71.67,1.16.48l2.45-1.01c.45-.19.67-.71.48-1.16l-.58-1.42c1.37-.9,2.51-2.05,3.38-3.37l1.42.59c.45.19.97-.03,1.16-.48l1.02-2.45c.19-.45-.03-.97-.48-1.16l-1.42-.59c.32-1.55.34-3.17.01-4.77l1.42-.58c.45-.19.67-.71.48-1.16l-1.01-2.45c-.19-.45-.71-.67-1.16-.48ZM24.67,27.97c-3.12,1.28-6.69-.21-7.97-3.33-1.28-3.12.21-6.69,3.33-7.97s6.69.21,7.97,3.33-.21,6.69-3.33,7.97Z"/>
</svg>