<?xml version="1.0" encoding="UTF-8"?>
<svg id="Vrstva_3" data-name="Vrstva 3" xmlns="http://www.w3.org/2000/svg" viewBox="0 0 23.9 23.9">
  <defs>
    <style>
      .cls-1 {
        fill: #367eab;
        opacity: .6;
      }
    </style>
  </defs>
  <path class="cls-1" d="M16.78,17.42l2.98-2.98c.13-.13.21-.31.21-.5s-.07-.36-.21-.5c-.28-.27-.72-.27-1,0l-2.98,2.98-2.98-2.98c-.27-.27-.72-.27-1,0-.27.27-.27.72,0,1l2.98,2.98-2.98,2.98c-.27.27-.27.72,0,1,.27.27.72.27,1,0l2.98-2.98,2.98,2.98c.14.14.32.21.5.21s.36-.07.5-.21.21-.31.21-.5-.07-.36-.21-.5l-2.98-2.98Z"/>
  <path class="cls-1" d="M16.14,12.94c-.5-1.23-1.38-2.19-2.45-2.81-.19-.11-.37-.2-.54-.27,0,0-.02-.01-.03-.02,1.06-.74,1.75-1.96,1.75-3.34,0-2.25-1.83-4.08-4.08-4.08s-4.08,1.83-4.08,4.08c0,1.39.7,2.61,1.76,3.35-2.01.9-3.41,2.91-3.41,5.25,0,.35.28.63.63.63s.63-.28.63-.63c0-2.47,2.01-4.49,4.49-4.49.7,0,1.35.17,1.94.46.11.05.22.11.32.17.82.48,1.51,1.22,1.89,2.17.13.32.5.48.82.35.32-.13.48-.5.35-.82ZM10.79,9.32c-1.55,0-2.81-1.26-2.81-2.81s1.26-2.81,2.81-2.81,2.81,1.26,2.81,2.81-1.26,2.81-2.81,2.81Z"/>
</svg>