<?xml version="1.0" encoding="UTF-8"?>
<svg id="Vrstva_3" data-name="Vrstva 3" xmlns="http://www.w3.org/2000/svg" viewBox="0 0 44.64 44.64">
  <defs>
    <style>
      .cls-1 {
        fill: #367eab;
      }
    </style>
  </defs>
  <g>
    <path class="cls-1" d="M15.17,35.27c-.14,0-.28-.04-.4-.14-.28-.22-.33-.61-.11-.89l4.1-5.06c.22-.27.63-.32.91-.1.28.22.33.61.11.89l-4.1,5.06c-.13.16-.32.24-.51.24Z"/>
    <path class="cls-1" d="M11.9,32.39c-.14,0-.28-.04-.4-.13-.28-.22-.33-.61-.11-.89l1.76-2.19c.22-.27.63-.32.91-.11.28.22.33.61.11.89l-1.76,2.19c-.13.16-.32.24-.51.24Z"/>
    <path class="cls-1" d="M20.94,35.27c-.14,0-.27-.04-.39-.13-.28-.21-.34-.61-.12-.88l3.92-5.06c.22-.28.62-.33.9-.12.28.21.34.61.12.88l-3.92,5.06c-.13.16-.32.25-.51.25Z"/>
    <path class="cls-1" d="M28.23,33.22c-.13,0-.26-.04-.38-.12-.29-.2-.35-.6-.14-.88l2.23-3.01c.21-.28.61-.35.9-.14.29.2.35.6.14.88l-2.23,3.01c-.13.17-.32.26-.52.26Z"/>
  </g>
  <path class="cls-1" d="M31.16,15.36c-.97-.17-1.93-.09-2.8.2-1.18-1.94-3.33-3.24-5.8-3.24-3.06,0-5.65,2-6.47,4.73-.52-.19-1.08-.29-1.66-.29-2.67,0-4.84,2.12-4.84,4.73s2.17,4.73,4.84,4.73h15.73c2.65,0,5.01-1.85,5.51-4.5.55-2.98-1.46-5.83-4.5-6.37Z"/>
</svg>