<?xml version="1.0" encoding="UTF-8"?>
<svg id="Vrstva_3" data-name="Vrstva 3" xmlns="http://www.w3.org/2000/svg" viewBox="0 0 23.9 23.9">
  <defs>
    <style>
      .cls-1 {
        fill: #367eab;
        stroke: #367eab;
        stroke-miterlimit: 10;
        stroke-width: .25px;
      }
    </style>
  </defs>
  <path class="cls-1" d="M12.33,11.2v-4.64c0-.29-.23-.52-.52-.52s-.52.23-.52.52v4.64h-4.64c-.29,0-.52.23-.52.52s.23.52.52.52h4.64v4.64c0,.29.23.52.52.52.14,0,.27-.06.37-.15s.15-.22.15-.37v-4.64h4.64c.14,0,.27-.06.37-.15s.15-.22.15-.37c0-.29-.23-.52-.52-.52h-4.64Z"/>
</svg>