<?xml version="1.0" encoding="UTF-8"?>
<svg id="Vrstva_3" data-name="Vrstva 3" xmlns="http://www.w3.org/2000/svg" viewBox="0 0 44.64 44.64">
  <defs>
    <style>
      .cls-1 {
        fill: #367eab;
      }
    </style>
  </defs>
  <path class="cls-1" d="M23.72,23v-8.92c0-1.67-1.36-3.03-3.03-3.03s-3.03,1.36-3.03,3.03v8.92c-1.61,1.01-2.67,2.79-2.67,4.82,0,1.58.64,3.01,1.68,4.04h0s0,0,0,0c1.03,1.01,2.44,1.65,4.01,1.65s2.98-.63,4.01-1.65c1.04-1.04,1.69-2.47,1.69-4.05,0-2.03-1.06-3.82-2.67-4.82ZM17.67,25.56c.46-.61,1.12-1.08,1.86-1.32v-10.16c0-.64.53-1.17,1.17-1.17s1.17.53,1.17,1.17v10.16c.75.24,1.39.71,1.86,1.32.48.63.76,1.42.76,2.27h-7.58c0-.85.28-1.64.76-2.27Z"/>
</svg>