<?xml version="1.0" encoding="UTF-8"?>
<svg id="Vrstva_3" data-name="Vrstva 3" xmlns="http://www.w3.org/2000/svg" viewBox="0 0 23.9 23.9">
  <defs>
    <style>
      .cls-1 {
        fill: #367eab;
        opacity: .71;
      }
    </style>
  </defs>
  <path class="cls-1" d="M10.67,5.09c3.03,0,5.5,2.47,5.5,5.5,0,1.2-.39,2.3-1.04,3.21l4.46,4.32c.39.38.4,1,.02,1.39-.19.2-.45.3-.71.3s-.5-.09-.69-.28l-4.47-4.33s-.01-.02-.02-.03c-.87.59-1.92.93-3.05.93-3.03,0-5.5-2.47-5.5-5.5s2.47-5.5,5.5-5.5ZM10.67,14.61c2.22,0,4.02-1.8,4.02-4.02s-1.8-4.02-4.02-4.02-4.02,1.8-4.02,4.02,1.8,4.02,4.02,4.02Z"/>
</svg>